<mxfile host="app.diagrams.net" agent="Mozilla/5.0 (Windows NT 10.0; Win64; x64) AppleWebKit/537.36 (KHTML, like Gecko) Chrome/140.0.0.0 Safari/537.36 Edg/140.0.0.0" version="28.2.5">
  <diagram name="Страница — 1" id="c7B_IJeVRaq-XSeznX0F">
    <mxGraphModel dx="4169" dy="2594" grid="0" gridSize="10" guides="1" tooltips="1" connect="1" arrows="1" fold="1" page="0" pageScale="1" pageWidth="827" pageHeight="1169" math="0" shadow="0">
      <root>
        <mxCell id="0" />
        <mxCell id="1" parent="0" />
        <mxCell id="fo7hstUSqARlFea2IAHi-1" value="&lt;font style=&quot;font-size: 14px;&quot; face=&quot;Times New Roman&quot;&gt;КАТЕГОРИИ ЗАДАЧ&lt;/font&gt;" style="rounded=0;whiteSpace=wrap;html=1;" vertex="1" parent="1">
          <mxGeometry x="-1470" y="-1023" width="325" height="60" as="geometry" />
        </mxCell>
        <mxCell id="fo7hstUSqARlFea2IAHi-2" value="" style="endArrow=none;html=1;rounded=0;" edge="1" parent="1">
          <mxGeometry width="50" height="50" relative="1" as="geometry">
            <mxPoint x="-1319" y="-469" as="sourcePoint" />
            <mxPoint x="-1315" y="-966" as="targetPoint" />
          </mxGeometry>
        </mxCell>
        <mxCell id="fo7hstUSqARlFea2IAHi-3" value="&lt;font face=&quot;Times New Roman&quot; style=&quot;font-size: 14px;&quot;&gt;ID категории&lt;/font&gt;" style="ellipse;whiteSpace=wrap;html=1;" vertex="1" parent="1">
          <mxGeometry x="-1207" y="-907" width="136" height="54" as="geometry" />
        </mxCell>
        <mxCell id="fo7hstUSqARlFea2IAHi-4" value="" style="endArrow=none;html=1;rounded=0;" edge="1" parent="1">
          <mxGeometry width="50" height="50" relative="1" as="geometry">
            <mxPoint x="-1318" y="-885" as="sourcePoint" />
            <mxPoint x="-1207" y="-885" as="targetPoint" />
          </mxGeometry>
        </mxCell>
        <mxCell id="fo7hstUSqARlFea2IAHi-5" value="" style="endArrow=none;html=1;rounded=0;" edge="1" parent="1">
          <mxGeometry width="50" height="50" relative="1" as="geometry">
            <mxPoint x="-1317" y="-786" as="sourcePoint" />
            <mxPoint x="-1202" y="-786" as="targetPoint" />
          </mxGeometry>
        </mxCell>
        <mxCell id="fo7hstUSqARlFea2IAHi-6" value="&lt;font style=&quot;font-size: 14px;&quot;&gt;Название категории&lt;/font&gt;" style="ellipse;whiteSpace=wrap;html=1;" vertex="1" parent="1">
          <mxGeometry x="-1199" y="-808" width="120" height="45" as="geometry" />
        </mxCell>
        <mxCell id="fo7hstUSqARlFea2IAHi-7" value="" style="endArrow=none;html=1;rounded=0;" edge="1" parent="1">
          <mxGeometry width="50" height="50" relative="1" as="geometry">
            <mxPoint x="-1317" y="-667" as="sourcePoint" />
            <mxPoint x="-1204" y="-667" as="targetPoint" />
          </mxGeometry>
        </mxCell>
        <mxCell id="fo7hstUSqARlFea2IAHi-8" value="&lt;font face=&quot;Times New Roman&quot; style=&quot;font-size: 14px;&quot;&gt;Иконка&lt;/font&gt;" style="ellipse;whiteSpace=wrap;html=1;" vertex="1" parent="1">
          <mxGeometry x="-1203" y="-689" width="104" height="43" as="geometry" />
        </mxCell>
        <mxCell id="fo7hstUSqARlFea2IAHi-9" value="" style="endArrow=none;html=1;rounded=0;" edge="1" parent="1">
          <mxGeometry width="50" height="50" relative="1" as="geometry">
            <mxPoint x="-1317" y="-574" as="sourcePoint" />
            <mxPoint x="-1202" y="-574" as="targetPoint" />
          </mxGeometry>
        </mxCell>
        <mxCell id="fo7hstUSqARlFea2IAHi-10" value="&lt;font face=&quot;Times New Roman&quot; style=&quot;font-size: 14px;&quot;&gt;Цвет&lt;/font&gt;" style="ellipse;whiteSpace=wrap;html=1;" vertex="1" parent="1">
          <mxGeometry x="-1207" y="-599" width="93" height="51" as="geometry" />
        </mxCell>
        <mxCell id="fo7hstUSqARlFea2IAHi-11" value="" style="endArrow=none;html=1;rounded=0;" edge="1" parent="1">
          <mxGeometry width="50" height="50" relative="1" as="geometry">
            <mxPoint x="-1303" y="-376" as="sourcePoint" />
            <mxPoint x="-1318" y="-469" as="targetPoint" />
          </mxGeometry>
        </mxCell>
        <mxCell id="fo7hstUSqARlFea2IAHi-12" value="" style="endArrow=none;html=1;rounded=0;" edge="1" parent="1">
          <mxGeometry width="50" height="50" relative="1" as="geometry">
            <mxPoint x="-1340" y="-544" as="sourcePoint" />
            <mxPoint x="-1298" y="-544" as="targetPoint" />
          </mxGeometry>
        </mxCell>
        <mxCell id="fo7hstUSqARlFea2IAHi-13" value="" style="endArrow=none;html=1;rounded=0;" edge="1" parent="1">
          <mxGeometry width="50" height="50" relative="1" as="geometry">
            <mxPoint x="-1340" y="-525" as="sourcePoint" />
            <mxPoint x="-1298" y="-525" as="targetPoint" />
          </mxGeometry>
        </mxCell>
        <mxCell id="fo7hstUSqARlFea2IAHi-14" value="&lt;font face=&quot;Times New Roman&quot; style=&quot;font-size: 14px;&quot;&gt;Категории&lt;/font&gt;" style="text;html=1;align=center;verticalAlign=middle;whiteSpace=wrap;rounded=0;" vertex="1" parent="1">
          <mxGeometry x="-1304" y="-462" width="60" height="30" as="geometry" />
        </mxCell>
        <mxCell id="fo7hstUSqARlFea2IAHi-16" value="&lt;font face=&quot;Times New Roman&quot; style=&quot;font-size: 14px;&quot;&gt;ЭКОЗАДАЧИ&lt;/font&gt;" style="rounded=0;whiteSpace=wrap;html=1;" vertex="1" parent="1">
          <mxGeometry x="-1428" y="-375" width="283" height="60" as="geometry" />
        </mxCell>
        <mxCell id="fo7hstUSqARlFea2IAHi-17" value="" style="endArrow=none;html=1;rounded=0;" edge="1" parent="1">
          <mxGeometry width="50" height="50" relative="1" as="geometry">
            <mxPoint x="-1298" y="531" as="sourcePoint" />
            <mxPoint x="-1299" y="-315" as="targetPoint" />
          </mxGeometry>
        </mxCell>
        <mxCell id="fo7hstUSqARlFea2IAHi-18" value="&amp;nbsp;ID задачи" style="ellipse;whiteSpace=wrap;html=1;" vertex="1" parent="1">
          <mxGeometry x="-1194" y="-253" width="94" height="44" as="geometry" />
        </mxCell>
        <mxCell id="fo7hstUSqARlFea2IAHi-19" value="" style="endArrow=none;html=1;rounded=0;" edge="1" parent="1">
          <mxGeometry width="50" height="50" relative="1" as="geometry">
            <mxPoint x="-1297" y="-233" as="sourcePoint" />
            <mxPoint x="-1193.5" y="-233" as="targetPoint" />
          </mxGeometry>
        </mxCell>
        <mxCell id="fo7hstUSqARlFea2IAHi-20" value="" style="endArrow=none;html=1;rounded=0;" edge="1" parent="1" target="fo7hstUSqARlFea2IAHi-21">
          <mxGeometry width="50" height="50" relative="1" as="geometry">
            <mxPoint x="-1299" y="-133" as="sourcePoint" />
            <mxPoint x="-1196" y="-133" as="targetPoint" />
          </mxGeometry>
        </mxCell>
        <mxCell id="fo7hstUSqARlFea2IAHi-21" value="ID пользователя" style="ellipse;whiteSpace=wrap;html=1;" vertex="1" parent="1">
          <mxGeometry x="-1195" y="-157" width="96" height="45" as="geometry" />
        </mxCell>
        <mxCell id="fo7hstUSqARlFea2IAHi-22" value="" style="endArrow=none;html=1;rounded=0;" edge="1" parent="1">
          <mxGeometry width="50" height="50" relative="1" as="geometry">
            <mxPoint x="-1299" y="-26" as="sourcePoint" />
            <mxPoint x="-1192" y="-28" as="targetPoint" />
          </mxGeometry>
        </mxCell>
        <mxCell id="fo7hstUSqARlFea2IAHi-24" value="ID категории" style="ellipse;whiteSpace=wrap;html=1;" vertex="1" parent="1">
          <mxGeometry x="-1196" y="-52" width="90" height="49" as="geometry" />
        </mxCell>
        <mxCell id="fo7hstUSqARlFea2IAHi-25" value="" style="endArrow=none;html=1;rounded=0;" edge="1" parent="1">
          <mxGeometry width="50" height="50" relative="1" as="geometry">
            <mxPoint x="-1297" y="66" as="sourcePoint" />
            <mxPoint x="-1193" y="65" as="targetPoint" />
          </mxGeometry>
        </mxCell>
        <mxCell id="fo7hstUSqARlFea2IAHi-26" value="название" style="ellipse;whiteSpace=wrap;html=1;" vertex="1" parent="1">
          <mxGeometry x="-1194" y="40" width="91" height="48" as="geometry" />
        </mxCell>
        <mxCell id="fo7hstUSqARlFea2IAHi-27" value="" style="endArrow=none;html=1;rounded=0;" edge="1" parent="1">
          <mxGeometry width="50" height="50" relative="1" as="geometry">
            <mxPoint x="-1297" y="143" as="sourcePoint" />
            <mxPoint x="-1187" y="142" as="targetPoint" />
          </mxGeometry>
        </mxCell>
        <mxCell id="fo7hstUSqARlFea2IAHi-28" value="Описание" style="ellipse;whiteSpace=wrap;html=1;" vertex="1" parent="1">
          <mxGeometry x="-1188" y="119" width="79" height="38" as="geometry" />
        </mxCell>
        <mxCell id="fo7hstUSqARlFea2IAHi-29" value="" style="endArrow=none;html=1;rounded=0;" edge="1" parent="1">
          <mxGeometry width="50" height="50" relative="1" as="geometry">
            <mxPoint x="-1299" y="212" as="sourcePoint" />
            <mxPoint x="-1193" y="212" as="targetPoint" />
          </mxGeometry>
        </mxCell>
        <mxCell id="fo7hstUSqARlFea2IAHi-30" value="Дата создания" style="ellipse;whiteSpace=wrap;html=1;" vertex="1" parent="1">
          <mxGeometry x="-1196" y="196" width="93" height="32" as="geometry" />
        </mxCell>
        <mxCell id="fo7hstUSqARlFea2IAHi-31" value="" style="endArrow=none;html=1;rounded=0;" edge="1" parent="1">
          <mxGeometry width="50" height="50" relative="1" as="geometry">
            <mxPoint x="-1299" y="289" as="sourcePoint" />
            <mxPoint x="-1196" y="288" as="targetPoint" />
          </mxGeometry>
        </mxCell>
        <mxCell id="fo7hstUSqARlFea2IAHi-32" value="Срок выполнения" style="ellipse;whiteSpace=wrap;html=1;" vertex="1" parent="1">
          <mxGeometry x="-1196" y="270" width="99" height="35" as="geometry" />
        </mxCell>
        <mxCell id="fo7hstUSqARlFea2IAHi-33" value="" style="endArrow=none;html=1;rounded=0;" edge="1" parent="1">
          <mxGeometry width="50" height="50" relative="1" as="geometry">
            <mxPoint x="-1299" y="372" as="sourcePoint" />
            <mxPoint x="-1196" y="370" as="targetPoint" />
          </mxGeometry>
        </mxCell>
        <mxCell id="fo7hstUSqARlFea2IAHi-34" value="Статус" style="ellipse;whiteSpace=wrap;html=1;" vertex="1" parent="1">
          <mxGeometry x="-1203" y="346" width="101" height="45" as="geometry" />
        </mxCell>
        <mxCell id="fo7hstUSqARlFea2IAHi-36" value="ГЕОНАПОМИНАНИЯ" style="rounded=0;whiteSpace=wrap;html=1;" vertex="1" parent="1">
          <mxGeometry x="-1395" y="531" width="192" height="60" as="geometry" />
        </mxCell>
        <mxCell id="fo7hstUSqARlFea2IAHi-37" value="Активирует" style="text;html=1;align=center;verticalAlign=middle;whiteSpace=wrap;rounded=0;" vertex="1" parent="1">
          <mxGeometry x="-1289" y="452" width="60" height="30" as="geometry" />
        </mxCell>
        <mxCell id="fo7hstUSqARlFea2IAHi-38" value="" style="endArrow=none;html=1;rounded=0;" edge="1" parent="1">
          <mxGeometry width="50" height="50" relative="1" as="geometry">
            <mxPoint x="-1313" y="399" as="sourcePoint" />
            <mxPoint x="-1285" y="399" as="targetPoint" />
          </mxGeometry>
        </mxCell>
        <mxCell id="fo7hstUSqARlFea2IAHi-39" value="" style="endArrow=none;html=1;rounded=0;" edge="1" parent="1">
          <mxGeometry width="50" height="50" relative="1" as="geometry">
            <mxPoint x="-1312.5" y="410" as="sourcePoint" />
            <mxPoint x="-1285.5" y="410" as="targetPoint" />
          </mxGeometry>
        </mxCell>
        <mxCell id="fo7hstUSqARlFea2IAHi-41" value="" style="endArrow=none;html=1;rounded=0;" edge="1" parent="1">
          <mxGeometry width="50" height="50" relative="1" as="geometry">
            <mxPoint x="-1308" y="493" as="sourcePoint" />
            <mxPoint x="-1285" y="493" as="targetPoint" />
          </mxGeometry>
        </mxCell>
        <mxCell id="fo7hstUSqARlFea2IAHi-42" value="" style="endArrow=none;html=1;rounded=0;" edge="1" parent="1">
          <mxGeometry width="50" height="50" relative="1" as="geometry">
            <mxPoint x="-1308" y="501" as="sourcePoint" />
            <mxPoint x="-1285" y="501" as="targetPoint" />
          </mxGeometry>
        </mxCell>
        <mxCell id="fo7hstUSqARlFea2IAHi-44" value="" style="ellipse;whiteSpace=wrap;html=1;aspect=fixed;" vertex="1" parent="1">
          <mxGeometry x="-1325" y="-437" width="27" height="27" as="geometry" />
        </mxCell>
        <mxCell id="fo7hstUSqARlFea2IAHi-46" value="" style="endArrow=none;html=1;rounded=0;" edge="1" parent="1">
          <mxGeometry width="50" height="50" relative="1" as="geometry">
            <mxPoint x="-1296" y="930" as="sourcePoint" />
            <mxPoint x="-1298" y="591" as="targetPoint" />
          </mxGeometry>
        </mxCell>
        <mxCell id="fo7hstUSqARlFea2IAHi-47" value="" style="endArrow=none;html=1;rounded=0;" edge="1" parent="1">
          <mxGeometry width="50" height="50" relative="1" as="geometry">
            <mxPoint x="-1298" y="646" as="sourcePoint" />
            <mxPoint x="-1238" y="646" as="targetPoint" />
          </mxGeometry>
        </mxCell>
        <mxCell id="fo7hstUSqARlFea2IAHi-48" value="ID напоминания" style="ellipse;whiteSpace=wrap;html=1;" vertex="1" parent="1">
          <mxGeometry x="-1244" y="630" width="97" height="40" as="geometry" />
        </mxCell>
        <mxCell id="fo7hstUSqARlFea2IAHi-49" value="" style="endArrow=none;html=1;rounded=0;" edge="1" parent="1" target="fo7hstUSqARlFea2IAHi-50">
          <mxGeometry width="50" height="50" relative="1" as="geometry">
            <mxPoint x="-1298" y="706" as="sourcePoint" />
            <mxPoint x="-1227" y="706" as="targetPoint" />
          </mxGeometry>
        </mxCell>
        <mxCell id="fo7hstUSqARlFea2IAHi-50" value="ID задачи" style="ellipse;whiteSpace=wrap;html=1;" vertex="1" parent="1">
          <mxGeometry x="-1232" y="690" width="83" height="31" as="geometry" />
        </mxCell>
        <mxCell id="fo7hstUSqARlFea2IAHi-51" value="" style="endArrow=none;html=1;rounded=0;" edge="1" parent="1">
          <mxGeometry width="50" height="50" relative="1" as="geometry">
            <mxPoint x="-1298" y="760" as="sourcePoint" />
            <mxPoint x="-1232" y="759" as="targetPoint" />
          </mxGeometry>
        </mxCell>
        <mxCell id="fo7hstUSqARlFea2IAHi-52" value="Широта" style="ellipse;whiteSpace=wrap;html=1;" vertex="1" parent="1">
          <mxGeometry x="-1232" y="743" width="83" height="34" as="geometry" />
        </mxCell>
        <mxCell id="fo7hstUSqARlFea2IAHi-54" value="" style="endArrow=none;html=1;rounded=0;" edge="1" parent="1">
          <mxGeometry width="50" height="50" relative="1" as="geometry">
            <mxPoint x="-1298" y="817" as="sourcePoint" />
            <mxPoint x="-1232" y="816" as="targetPoint" />
          </mxGeometry>
        </mxCell>
        <mxCell id="fo7hstUSqARlFea2IAHi-57" value="Долгота" style="ellipse;whiteSpace=wrap;html=1;" vertex="1" parent="1">
          <mxGeometry x="-1234" y="800" width="83" height="34" as="geometry" />
        </mxCell>
        <mxCell id="fo7hstUSqARlFea2IAHi-58" value="" style="endArrow=none;html=1;rounded=0;" edge="1" parent="1">
          <mxGeometry width="50" height="50" relative="1" as="geometry">
            <mxPoint x="-1295" y="871" as="sourcePoint" />
            <mxPoint x="-1229" y="870" as="targetPoint" />
          </mxGeometry>
        </mxCell>
        <mxCell id="fo7hstUSqARlFea2IAHi-59" value="Радиус" style="ellipse;whiteSpace=wrap;html=1;" vertex="1" parent="1">
          <mxGeometry x="-1230" y="852" width="83" height="34" as="geometry" />
        </mxCell>
        <mxCell id="fo7hstUSqARlFea2IAHi-60" value="" style="endArrow=none;html=1;rounded=0;" edge="1" parent="1">
          <mxGeometry width="50" height="50" relative="1" as="geometry">
            <mxPoint x="-1296" y="930" as="sourcePoint" />
            <mxPoint x="-1230" y="929" as="targetPoint" />
          </mxGeometry>
        </mxCell>
        <mxCell id="fo7hstUSqARlFea2IAHi-61" value="Активно" style="ellipse;whiteSpace=wrap;html=1;" vertex="1" parent="1">
          <mxGeometry x="-1230" y="911" width="83" height="34" as="geometry" />
        </mxCell>
        <mxCell id="fo7hstUSqARlFea2IAHi-62" value="" style="endArrow=none;html=1;rounded=0;exitX=1;exitY=0;exitDx=0;exitDy=0;" edge="1" parent="1" source="fo7hstUSqARlFea2IAHi-16">
          <mxGeometry width="50" height="50" relative="1" as="geometry">
            <mxPoint x="-1141" y="-375" as="sourcePoint" />
            <mxPoint x="-714" y="-830" as="targetPoint" />
          </mxGeometry>
        </mxCell>
        <mxCell id="fo7hstUSqARlFea2IAHi-63" value="" style="ellipse;whiteSpace=wrap;html=1;aspect=fixed;" vertex="1" parent="1">
          <mxGeometry x="-1095" y="-462" width="38" height="38" as="geometry" />
        </mxCell>
        <mxCell id="fo7hstUSqARlFea2IAHi-64" value="" style="endArrow=none;html=1;rounded=0;" edge="1" parent="1">
          <mxGeometry width="50" height="50" relative="1" as="geometry">
            <mxPoint x="-712" y="-538" as="sourcePoint" />
            <mxPoint x="-716" y="-999" as="targetPoint" />
          </mxGeometry>
        </mxCell>
        <mxCell id="fo7hstUSqARlFea2IAHi-65" value="&lt;font face=&quot;Times New Roman&quot;&gt;&lt;span style=&quot;font-size: 14px;&quot;&gt;ПОЛЬЗОВАТЕЛИ&lt;/span&gt;&lt;/font&gt;" style="rounded=0;whiteSpace=wrap;html=1;" vertex="1" parent="1">
          <mxGeometry x="-840" y="-1060" width="242" height="64" as="geometry" />
        </mxCell>
        <mxCell id="fo7hstUSqARlFea2IAHi-66" value="" style="endArrow=none;html=1;rounded=0;" edge="1" parent="1">
          <mxGeometry width="50" height="50" relative="1" as="geometry">
            <mxPoint x="-716" y="-914" as="sourcePoint" />
            <mxPoint x="-604" y="-914" as="targetPoint" />
          </mxGeometry>
        </mxCell>
        <mxCell id="fo7hstUSqARlFea2IAHi-67" value="ID пользователя" style="ellipse;whiteSpace=wrap;html=1;" vertex="1" parent="1">
          <mxGeometry x="-610" y="-937" width="120" height="49" as="geometry" />
        </mxCell>
        <mxCell id="fo7hstUSqARlFea2IAHi-68" value="" style="endArrow=none;html=1;rounded=0;" edge="1" parent="1">
          <mxGeometry width="50" height="50" relative="1" as="geometry">
            <mxPoint x="-716" y="-846" as="sourcePoint" />
            <mxPoint x="-604" y="-846" as="targetPoint" />
          </mxGeometry>
        </mxCell>
        <mxCell id="fo7hstUSqARlFea2IAHi-69" value="Имя пользователя" style="ellipse;whiteSpace=wrap;html=1;" vertex="1" parent="1">
          <mxGeometry x="-603" y="-869" width="120" height="49" as="geometry" />
        </mxCell>
        <mxCell id="fo7hstUSqARlFea2IAHi-70" value="" style="endArrow=none;html=1;rounded=0;" edge="1" parent="1">
          <mxGeometry width="50" height="50" relative="1" as="geometry">
            <mxPoint x="-715" y="-776" as="sourcePoint" />
            <mxPoint x="-603" y="-776" as="targetPoint" />
          </mxGeometry>
        </mxCell>
        <mxCell id="fo7hstUSqARlFea2IAHi-71" value="Электронная почта" style="ellipse;whiteSpace=wrap;html=1;" vertex="1" parent="1">
          <mxGeometry x="-606" y="-799" width="120" height="49" as="geometry" />
        </mxCell>
        <mxCell id="fo7hstUSqARlFea2IAHi-72" value="" style="endArrow=none;html=1;rounded=0;" edge="1" parent="1">
          <mxGeometry width="50" height="50" relative="1" as="geometry">
            <mxPoint x="-713" y="-695" as="sourcePoint" />
            <mxPoint x="-601" y="-695" as="targetPoint" />
          </mxGeometry>
        </mxCell>
        <mxCell id="fo7hstUSqARlFea2IAHi-73" value="Дата регистрации" style="ellipse;whiteSpace=wrap;html=1;" vertex="1" parent="1">
          <mxGeometry x="-603" y="-719" width="120" height="49" as="geometry" />
        </mxCell>
        <mxCell id="fo7hstUSqARlFea2IAHi-74" value="" style="endArrow=none;html=1;rounded=0;" edge="1" parent="1">
          <mxGeometry width="50" height="50" relative="1" as="geometry">
            <mxPoint x="-712" y="-624" as="sourcePoint" />
            <mxPoint x="-600" y="-624" as="targetPoint" />
          </mxGeometry>
        </mxCell>
        <mxCell id="fo7hstUSqARlFea2IAHi-75" value="Местоположение" style="ellipse;whiteSpace=wrap;html=1;" vertex="1" parent="1">
          <mxGeometry x="-606" y="-648" width="120" height="49" as="geometry" />
        </mxCell>
        <mxCell id="fo7hstUSqARlFea2IAHi-76" value="" style="endArrow=none;html=1;rounded=0;" edge="1" parent="1">
          <mxGeometry width="50" height="50" relative="1" as="geometry">
            <mxPoint x="-447" y="-312" as="sourcePoint" />
            <mxPoint x="-712" y="-539" as="targetPoint" />
          </mxGeometry>
        </mxCell>
        <mxCell id="fo7hstUSqARlFea2IAHi-77" value="&lt;font face=&quot;Times New Roman&quot;&gt;&lt;span style=&quot;font-size: 14px;&quot;&gt;ЭКОСТАТИСТИКА&lt;/span&gt;&lt;/font&gt;" style="rounded=0;whiteSpace=wrap;html=1;" vertex="1" parent="1">
          <mxGeometry x="-566" y="-310" width="242" height="64" as="geometry" />
        </mxCell>
        <mxCell id="fo7hstUSqARlFea2IAHi-78" value="" style="endArrow=none;html=1;rounded=0;" edge="1" parent="1">
          <mxGeometry width="50" height="50" relative="1" as="geometry">
            <mxPoint x="-439" y="219" as="sourcePoint" />
            <mxPoint x="-443" y="-246" as="targetPoint" />
          </mxGeometry>
        </mxCell>
        <mxCell id="fo7hstUSqARlFea2IAHi-79" value="" style="endArrow=none;html=1;rounded=0;" edge="1" parent="1">
          <mxGeometry width="50" height="50" relative="1" as="geometry">
            <mxPoint x="-442" y="-150" as="sourcePoint" />
            <mxPoint x="-330" y="-150" as="targetPoint" />
          </mxGeometry>
        </mxCell>
        <mxCell id="fo7hstUSqARlFea2IAHi-80" value="ID статистики" style="ellipse;whiteSpace=wrap;html=1;" vertex="1" parent="1">
          <mxGeometry x="-329" y="-173" width="120" height="49" as="geometry" />
        </mxCell>
        <mxCell id="fo7hstUSqARlFea2IAHi-81" value="" style="endArrow=none;html=1;rounded=0;" edge="1" parent="1">
          <mxGeometry width="50" height="50" relative="1" as="geometry">
            <mxPoint x="-441" y="-76" as="sourcePoint" />
            <mxPoint x="-329" y="-76" as="targetPoint" />
          </mxGeometry>
        </mxCell>
        <mxCell id="fo7hstUSqARlFea2IAHi-82" value="ID пользователя" style="ellipse;whiteSpace=wrap;html=1;" vertex="1" parent="1">
          <mxGeometry x="-331" y="-101" width="120" height="49" as="geometry" />
        </mxCell>
        <mxCell id="fo7hstUSqARlFea2IAHi-83" value="" style="endArrow=none;html=1;rounded=0;" edge="1" parent="1">
          <mxGeometry width="50" height="50" relative="1" as="geometry">
            <mxPoint x="-441" y="-3" as="sourcePoint" />
            <mxPoint x="-329" y="-3" as="targetPoint" />
          </mxGeometry>
        </mxCell>
        <mxCell id="fo7hstUSqARlFea2IAHi-84" value="Дата" style="ellipse;whiteSpace=wrap;html=1;" vertex="1" parent="1">
          <mxGeometry x="-329" y="-29" width="120" height="49" as="geometry" />
        </mxCell>
        <mxCell id="fo7hstUSqARlFea2IAHi-85" value="" style="endArrow=none;html=1;rounded=0;" edge="1" parent="1">
          <mxGeometry width="50" height="50" relative="1" as="geometry">
            <mxPoint x="-441" y="66" as="sourcePoint" />
            <mxPoint x="-329" y="66" as="targetPoint" />
          </mxGeometry>
        </mxCell>
        <mxCell id="fo7hstUSqARlFea2IAHi-86" value="Выполненные задачи" style="ellipse;whiteSpace=wrap;html=1;" vertex="1" parent="1">
          <mxGeometry x="-329" y="43" width="120" height="49" as="geometry" />
        </mxCell>
        <mxCell id="fo7hstUSqARlFea2IAHi-87" value="" style="endArrow=none;html=1;rounded=0;" edge="1" parent="1">
          <mxGeometry width="50" height="50" relative="1" as="geometry">
            <mxPoint x="-441" y="137.64" as="sourcePoint" />
            <mxPoint x="-329" y="137.64" as="targetPoint" />
          </mxGeometry>
        </mxCell>
        <mxCell id="fo7hstUSqARlFea2IAHi-88" value="CO2 сэкономлено" style="ellipse;whiteSpace=wrap;html=1;" vertex="1" parent="1">
          <mxGeometry x="-329" y="113.5" width="120" height="49" as="geometry" />
        </mxCell>
        <mxCell id="fo7hstUSqARlFea2IAHi-89" value="" style="endArrow=none;html=1;rounded=0;" edge="1" parent="1">
          <mxGeometry width="50" height="50" relative="1" as="geometry">
            <mxPoint x="-439" y="218" as="sourcePoint" />
            <mxPoint x="-327" y="218" as="targetPoint" />
          </mxGeometry>
        </mxCell>
        <mxCell id="fo7hstUSqARlFea2IAHi-90" value="Сэкономленная вода" style="ellipse;whiteSpace=wrap;html=1;" vertex="1" parent="1">
          <mxGeometry x="-329" y="194" width="120" height="49" as="geometry" />
        </mxCell>
      </root>
    </mxGraphModel>
  </diagram>
</mxfile>
